<svg width="42" height="42" viewBox="0 0 42 42" fill="none" xmlns="http://www.w3.org/2000/svg">
<path d="M16.8576 35.9899L4.44484 23.3818C2.9038 21.8165 2.9038 19.3042 4.44484 17.7389L16.8576 5.13066C19.3819 2.5666 23.7452 4.35407 23.7452 7.95212V33.1684C23.7452 36.7665 19.382 38.554 16.8576 35.9899Z" fill="#F1F5F7"/>
<path d="M10.3722 29.4528H3.0002C1.70082 29.4528 0.637695 28.3897 0.637695 27.0903V14.0305C0.637695 12.7311 1.70082 11.668 3.0002 11.668H10.3723V29.4528H10.3722Z" fill="white"/>
<path d="M29.9264 30.2991C29.5707 30.2991 29.2226 30.1227 29.0179 29.8002C28.6997 29.299 28.8481 28.6348 29.3493 28.3165C31.4725 26.9687 32.9881 24.6672 33.4035 22.1601C33.9769 18.6992 32.3619 15.0838 29.3846 13.1636C28.8857 12.8418 28.7422 12.1766 29.064 11.6777C29.3856 11.1787 30.0508 11.035 30.55 11.357C34.2368 13.7348 36.2359 18.2175 35.5244 22.5114C35.0106 25.6124 33.1329 28.4611 30.5016 30.1315C30.3297 30.241 30.1301 30.2992 29.9264 30.2991ZM34.0505 33.2628C37.5594 31.0354 40.0634 27.2362 40.7487 23.1C41.6973 17.3745 39.0311 11.397 34.1143 8.2259C33.6151 7.90393 32.9499 8.04765 32.6283 8.54664C32.3065 9.04556 32.45 9.71083 32.949 10.0326C37.1562 12.746 39.4382 17.8562 38.6277 22.7486C38.0408 26.291 35.8989 29.5431 32.8982 31.4479C32.3971 31.766 32.2487 32.4303 32.5668 32.9316C32.6424 33.0508 32.7407 33.154 32.8562 33.2352C32.9717 33.3165 33.1021 33.3741 33.2399 33.4049C33.3777 33.4356 33.5203 33.4389 33.6594 33.4145C33.7984 33.3902 33.9313 33.3386 34.0505 33.2628ZM27.5091 25.8922C28.9738 24.9622 29.9777 23.4397 30.2634 21.7151C30.6537 19.3591 29.5579 16.9002 27.5365 15.5966C27.0376 15.2748 26.3723 15.4184 26.0505 15.9173C25.7287 16.4162 25.8723 17.0815 26.3713 17.4033C27.6829 18.2492 28.3948 19.8408 28.1425 21.3637C27.9593 22.4692 27.2918 23.4835 26.3568 24.0771C25.8556 24.3953 25.7073 25.0597 26.0254 25.5608C26.1225 25.7139 26.2567 25.8399 26.4155 25.9271C26.5744 26.0144 26.7527 26.06 26.9339 26.0597C27.1377 26.0597 27.3373 26.0016 27.5091 25.8922Z" fill="white"/>
</svg>
