<svg width="219" height="72" viewBox="0 0 219 72" fill="none" xmlns="http://www.w3.org/2000/svg">
<path d="M94.8154 44V28.3594H99.2305C100.591 28.3594 101.794 28.6602 102.84 29.2617C103.885 29.8633 104.691 30.7191 105.257 31.8291C105.83 32.9391 106.12 34.2139 106.127 35.6533V36.6523C106.127 38.1276 105.84 39.4202 105.268 40.5303C104.702 41.6403 103.889 42.4925 102.829 43.0869C101.776 43.6813 100.548 43.9857 99.1445 44H94.8154ZM96.8779 30.0566V42.3135H99.0479C100.638 42.3135 101.873 41.8193 102.754 40.8311C103.642 39.8428 104.086 38.4355 104.086 36.6094V35.6963C104.086 33.9202 103.667 32.5417 102.829 31.5605C101.998 30.5723 100.817 30.071 99.2842 30.0566H96.8779ZM114.56 34.1602C114.259 34.11 113.933 34.085 113.582 34.085C112.279 34.085 111.394 34.64 110.929 35.75V44H108.941V32.377H110.875L110.907 33.7197C111.559 32.6813 112.483 32.1621 113.679 32.1621C114.065 32.1621 114.359 32.2122 114.56 32.3125V34.1602ZM121.005 44.2148C119.429 44.2148 118.147 43.6992 117.159 42.668C116.171 41.6296 115.677 40.2438 115.677 38.5107V38.1455C115.677 36.9925 115.895 35.9648 116.332 35.0625C116.776 34.153 117.392 33.444 118.18 32.9355C118.975 32.4199 119.834 32.1621 120.758 32.1621C122.269 32.1621 123.443 32.6598 124.281 33.6553C125.119 34.6507 125.538 36.0758 125.538 37.9307V38.7578H117.664C117.693 39.9036 118.026 40.8311 118.663 41.54C119.308 42.2419 120.124 42.5928 121.112 42.5928C121.814 42.5928 122.409 42.4495 122.896 42.1631C123.382 41.8766 123.809 41.4971 124.174 41.0244L125.388 41.9697C124.414 43.4665 122.953 44.2148 121.005 44.2148ZM120.758 33.7949C119.956 33.7949 119.283 34.0885 118.738 34.6758C118.194 35.2559 117.857 36.0723 117.729 37.125H123.551V36.9746C123.493 35.9648 123.221 35.1842 122.734 34.6328C122.247 34.0742 121.589 33.7949 120.758 33.7949ZM135.023 44C134.909 43.7708 134.816 43.3626 134.744 42.7754C133.82 43.735 132.717 44.2148 131.436 44.2148C130.29 44.2148 129.348 43.8926 128.61 43.248C127.88 42.5964 127.515 41.7728 127.515 40.7773C127.515 39.5671 127.973 38.6289 128.89 37.9629C129.813 37.2897 131.11 36.9531 132.778 36.9531H134.712V36.04C134.712 35.3454 134.504 34.7939 134.089 34.3857C133.674 33.9704 133.061 33.7627 132.252 33.7627C131.543 33.7627 130.949 33.9417 130.469 34.2998C129.989 34.6579 129.749 35.0911 129.749 35.5996H127.751C127.751 35.0195 127.955 34.4609 128.363 33.9238C128.779 33.3796 129.337 32.9499 130.039 32.6348C130.748 32.3197 131.525 32.1621 132.37 32.1621C133.709 32.1621 134.758 32.4987 135.518 33.1719C136.277 33.8379 136.671 34.7581 136.699 35.9326V41.2822C136.699 42.3493 136.835 43.1979 137.107 43.8281V44H135.023ZM131.726 42.4854C132.349 42.4854 132.939 42.3242 133.498 42.002C134.057 41.6797 134.461 41.2607 134.712 40.7451V38.3604H133.154C130.719 38.3604 129.502 39.0729 129.502 40.498C129.502 41.1211 129.71 41.6081 130.125 41.959C130.54 42.3099 131.074 42.4854 131.726 42.4854ZM141.684 32.377L141.737 33.666C142.59 32.6634 143.739 32.1621 145.186 32.1621C146.811 32.1621 147.918 32.7852 148.505 34.0312C148.892 33.4727 149.393 33.0215 150.009 32.6777C150.632 32.334 151.366 32.1621 152.211 32.1621C154.76 32.1621 156.057 33.512 156.1 36.2119V44H154.112V36.3301C154.112 35.4993 153.923 34.8799 153.543 34.4717C153.163 34.0563 152.526 33.8486 151.631 33.8486C150.893 33.8486 150.281 34.0706 149.794 34.5146C149.307 34.9515 149.024 35.5423 148.945 36.2871V44H146.947V36.3838C146.947 34.6937 146.12 33.8486 144.466 33.8486C143.162 33.8486 142.271 34.4036 141.791 35.5137V44H139.804V32.377H141.684ZM160.977 32.377L161.03 33.666C161.882 32.6634 163.032 32.1621 164.479 32.1621C166.104 32.1621 167.211 32.7852 167.798 34.0312C168.185 33.4727 168.686 33.0215 169.302 32.6777C169.925 32.334 170.659 32.1621 171.504 32.1621C174.053 32.1621 175.35 33.512 175.393 36.2119V44H173.405V36.3301C173.405 35.4993 173.215 34.8799 172.836 34.4717C172.456 34.0563 171.819 33.8486 170.924 33.8486C170.186 33.8486 169.574 34.0706 169.087 34.5146C168.6 34.9515 168.317 35.5423 168.238 36.2871V44H166.24V36.3838C166.24 34.6937 165.413 33.8486 163.759 33.8486C162.455 33.8486 161.564 34.4036 161.084 35.5137V44H159.097V32.377H160.977ZM185.576 44C185.462 43.7708 185.368 43.3626 185.297 42.7754C184.373 43.735 183.27 44.2148 181.988 44.2148C180.842 44.2148 179.901 43.8926 179.163 43.248C178.433 42.5964 178.067 41.7728 178.067 40.7773C178.067 39.5671 178.526 38.6289 179.442 37.9629C180.366 37.2897 181.662 36.9531 183.331 36.9531H185.265V36.04C185.265 35.3454 185.057 34.7939 184.642 34.3857C184.226 33.9704 183.614 33.7627 182.805 33.7627C182.096 33.7627 181.501 33.9417 181.021 34.2998C180.542 34.6579 180.302 35.0911 180.302 35.5996H178.304C178.304 35.0195 178.508 34.4609 178.916 33.9238C179.331 33.3796 179.89 32.9499 180.592 32.6348C181.301 32.3197 182.078 32.1621 182.923 32.1621C184.262 32.1621 185.311 32.4987 186.07 33.1719C186.829 33.8379 187.223 34.7581 187.252 35.9326V41.2822C187.252 42.3493 187.388 43.1979 187.66 43.8281V44H185.576ZM182.278 42.4854C182.901 42.4854 183.492 42.3242 184.051 42.002C184.609 41.6797 185.014 41.2607 185.265 40.7451V38.3604H183.707C181.272 38.3604 180.055 39.0729 180.055 40.498C180.055 41.1211 180.262 41.6081 180.678 41.959C181.093 42.3099 181.627 42.4854 182.278 42.4854ZM193.611 38.6182L192.365 39.918V44H190.378V27.5H192.365V37.4795L193.429 36.2012L197.049 32.377H199.466L194.943 37.2324L199.992 44H197.661L193.611 38.6182ZM206.126 44.2148C204.55 44.2148 203.269 43.6992 202.28 42.668C201.292 41.6296 200.798 40.2438 200.798 38.5107V38.1455C200.798 36.9925 201.016 35.9648 201.453 35.0625C201.897 34.153 202.513 33.444 203.301 32.9355C204.096 32.4199 204.955 32.1621 205.879 32.1621C207.39 32.1621 208.564 32.6598 209.402 33.6553C210.24 34.6507 210.659 36.0758 210.659 37.9307V38.7578H202.785C202.814 39.9036 203.147 40.8311 203.784 41.54C204.429 42.2419 205.245 42.5928 206.233 42.5928C206.935 42.5928 207.53 42.4495 208.017 42.1631C208.504 41.8766 208.93 41.4971 209.295 41.0244L210.509 41.9697C209.535 43.4665 208.074 44.2148 206.126 44.2148ZM205.879 33.7949C205.077 33.7949 204.404 34.0885 203.859 34.6758C203.315 35.2559 202.979 36.0723 202.85 37.125H208.672V36.9746C208.615 35.9648 208.342 35.1842 207.855 34.6328C207.368 34.0742 206.71 33.7949 205.879 33.7949ZM218.587 34.1602C218.286 34.11 217.96 34.085 217.609 34.085C216.306 34.085 215.422 34.64 214.956 35.75V44H212.969V32.377H214.902L214.935 33.7197C215.586 32.6813 216.51 32.1621 217.706 32.1621C218.093 32.1621 218.386 32.2122 218.587 32.3125V34.1602Z" fill="#505050"/>
<circle cx="36" cy="36" r="36" fill="#C8C8C8"/>
<g filter="url(#filter0_d_493_2)">
<path d="M16.2012 27.4043C20.153 27.1113 22.7311 26.9648 23.9355 26.9648C25.1465 26.9648 26.1003 27.0788 26.7969 27.3066C27.5 27.528 28.1283 27.8372 28.6816 28.2344C29.7559 28.9961 30.5664 30.0085 31.1133 31.2715C31.6667 32.5345 31.9434 33.8138 31.9434 35.1094C31.9434 36.4049 31.7318 37.5378 31.3086 38.5078C30.8919 39.4714 30.3125 40.2852 29.5703 40.9492C28.0534 42.3229 26.0905 43.0065 23.6816 43H16.2012V27.4043ZM22.2754 32.3555V38.3027C22.6204 38.0098 22.9948 37.7201 23.3984 37.4336C24.9479 36.3203 25.7227 35.1549 25.7227 33.9375C25.7227 33.3451 25.5469 32.7982 25.1953 32.2969C24.8438 31.7891 24.3848 31.5352 23.8184 31.5352C23.2585 31.5352 22.7441 31.8086 22.2754 32.3555ZM39.1211 27.4043L40.9082 32.9609L44.8047 27.7363C44.9349 27.5605 45.0326 27.4466 45.0977 27.3945C45.1628 27.3424 45.2604 27.3164 45.3906 27.3164C45.5208 27.3164 45.6868 27.4564 45.8887 27.7363L49.5215 32.9023L51.2793 27.4043H56.8652L51.7676 42.5996C51.5462 43.2507 51.1719 43.5762 50.6445 43.5762C50.1172 43.5762 49.6452 43.2767 49.2285 42.6777L44.8633 36.3789L40.166 42.6973C39.7428 43.2572 39.2708 43.5371 38.75 43.5371C38.2292 43.5371 37.8483 43.2116 37.6074 42.5605L32.1191 27.4043H39.1211Z" fill="white"/>
</g>
<defs>
<filter id="filter0_d_493_2" x="12.2012" y="22.9648" width="52.6641" height="28.6113" filterUnits="userSpaceOnUse" color-interpolation-filters="sRGB">
<feFlood flood-opacity="0" result="BackgroundImageFix"/>
<feColorMatrix in="SourceAlpha" type="matrix" values="0 0 0 0 0 0 0 0 0 0 0 0 0 0 0 0 0 0 127 0" result="hardAlpha"/>
<feOffset dx="2" dy="2"/>
<feGaussianBlur stdDeviation="3"/>
<feColorMatrix type="matrix" values="0 0 0 0 0 0 0 0 0 0 0 0 0 0 0 0 0 0 0.25 0"/>
<feBlend mode="normal" in2="BackgroundImageFix" result="effect1_dropShadow_493_2"/>
<feBlend mode="normal" in="SourceGraphic" in2="effect1_dropShadow_493_2" result="shape"/>
</filter>
</defs>
</svg>
